<?xml version="1.0" encoding="UTF-8" standalone="no"?>
<svg xmlns:svg="http://www.w3.org/2000/svg" xmlns="http://www.w3.org/2000/svg" xmlns:xlink="http://www.w3.org/1999/xlink" version="1.0" width="48" height="48" id="svg249">
  <defs id="defs3">
    <linearGradient id="linearGradient3217">
      <stop id="stop3219" style="stop-color:#ffffff;stop-opacity:1" offset="0"/>
      <stop id="stop3221" style="stop-color:#ffffff;stop-opacity:0" offset="1"/>
    </linearGradient>
    <linearGradient id="linearGradient3968">
      <stop id="stop3970" style="stop-color:#729fcf;stop-opacity:1" offset="0"/>
      <stop id="stop3972" style="stop-color:#3465a4;stop-opacity:1" offset="1"/>
    </linearGradient>
    <linearGradient id="linearGradient10691">
      <stop id="stop10693" style="stop-color:#000000;stop-opacity:1" offset="0"/>
      <stop id="stop10695" style="stop-color:#000000;stop-opacity:0" offset="1"/>
    </linearGradient>
    <linearGradient id="linearGradient4790">
      <stop id="stop4792" style="stop-color:#000000;stop-opacity:1" offset="0"/>
      <stop id="stop4794" style="stop-color:#000000;stop-opacity:0" offset="1"/>
    </linearGradient>
    <linearGradient id="linearGradient2251">
      <stop id="stop2253" style="stop-color:#ffffff;stop-opacity:1" offset="0"/>
      <stop id="stop2255" style="stop-color:#ffffff;stop-opacity:0" offset="1"/>
    </linearGradient>
    <linearGradient id="linearGradient15662">
      <stop id="stop15664" style="stop-color:#ffffff;stop-opacity:1" offset="0"/>
      <stop id="stop15666" style="stop-color:#f8f8f8;stop-opacity:1" offset="1"/>
    </linearGradient>
    <linearGradient id="linearGradient269">
      <stop id="stop270" style="stop-color:#a3a3a3;stop-opacity:1" offset="0"/>
      <stop id="stop271" style="stop-color:#8a8a8a;stop-opacity:1" offset="1"/>
    </linearGradient>
    <linearGradient id="linearGradient259">
      <stop id="stop260" style="stop-color:#fafafa;stop-opacity:1" offset="0"/>
      <stop id="stop261" style="stop-color:#bbbbbb;stop-opacity:1" offset="1"/>
    </linearGradient>
    <linearGradient id="linearGradient3688">
      <stop id="stop3690" style="stop-color:#000000;stop-opacity:1" offset="0"/>
      <stop id="stop3692" style="stop-color:#000000;stop-opacity:0" offset="1"/>
    </linearGradient>
    <linearGradient id="linearGradient3702">
      <stop id="stop3704" style="stop-color:#000000;stop-opacity:0" offset="0"/>
      <stop id="stop3710" style="stop-color:#000000;stop-opacity:1" offset="0.5"/>
      <stop id="stop3706" style="stop-color:#000000;stop-opacity:0" offset="1"/>
    </linearGradient>
    <linearGradient x1="25.058096" y1="47.027729" x2="25.058096" y2="40" id="linearGradient2553" xlink:href="#linearGradient3702" gradientUnits="userSpaceOnUse" gradientTransform="matrix(1.05263,0,0,1.28571,-1.26316,-13.4285)"/>
    <radialGradient cx="4.9929786" cy="43.5" r="2.5" fx="4.9929786" fy="43.5" id="radialGradient2556" xlink:href="#linearGradient3688" gradientUnits="userSpaceOnUse" gradientTransform="matrix(2.1092432,0,0,1.8,-19.801935,-120.79962)"/>
    <radialGradient cx="8.1435566" cy="7.2678967" r="38.158695" fx="8.1435566" fy="7.2678967" id="radialGradient2572" xlink:href="#linearGradient15662" gradientUnits="userSpaceOnUse" gradientTransform="matrix(0.968273,0,0,1.032767,3.353553,0.646447)"/>
    <radialGradient cx="33.966679" cy="35.736916" r="86.70845" fx="33.966679" fy="35.736916" id="radialGradient2575" xlink:href="#linearGradient259" gradientUnits="userSpaceOnUse" gradientTransform="scale(0.960493,1.041132)"/>
    <radialGradient cx="8.824419" cy="3.7561285" r="37.751713" fx="8.824419" fy="3.7561285" id="radialGradient2577" xlink:href="#linearGradient269" gradientUnits="userSpaceOnUse" gradientTransform="matrix(0.968273,0,0,1.032767,3.353553,0.646447)"/>
    <linearGradient x1="33.396004" y1="36.921333" x2="34.170048" y2="38.070381" id="linearGradient2615" xlink:href="#linearGradient2251" gradientUnits="userSpaceOnUse" gradientTransform="matrix(-3.277938e-2,-0.999463,0.999463,-3.277938e-2,-0.709646,45.06274)"/>
    <radialGradient cx="30.653816" cy="14.9373" r="86.70845" fx="30.653816" fy="14.9373" id="radialGradient2618" xlink:href="#linearGradient259" gradientUnits="userSpaceOnUse" gradientTransform="matrix(0.148355,1.009137e-2,-1.104438e-2,0.162365,25.06011,12.81706)"/>
    <radialGradient cx="31.863327" cy="2.3667307" r="37.751713" fx="31.863327" fy="2.3667307" id="radialGradient2620" xlink:href="#linearGradient269" gradientUnits="userSpaceOnUse" gradientTransform="matrix(0.331735,0,0,0.353831,20.10526,9.5823)"/>
    <radialGradient cx="37.030354" cy="12.98915" r="4.2929163" fx="37.030354" fy="12.98915" id="radialGradient2623" xlink:href="#linearGradient4790" gradientUnits="userSpaceOnUse" gradientTransform="matrix(1.744653,0,0,1.283833,-26.58256,-3.478359)"/>
    <linearGradient x1="-32.440605" y1="9.2811022" x2="-32.440605" y2="36.091892" id="linearGradient2633" xlink:href="#linearGradient3217" gradientUnits="userSpaceOnUse" gradientTransform="matrix(0.9754525,0,0,1,63.644381,9.4950639)"/>
    <linearGradient x1="-32.440605" y1="9.4367237" x2="-32.440605" y2="35.936272" id="linearGradient2636" xlink:href="#linearGradient3968" gradientUnits="userSpaceOnUse" gradientTransform="matrix(1.0364433,0,0,1.0540204,65.622924,8.0879114)"/>
    <radialGradient cx="6.702713" cy="73.615715" r="7.228416" fx="6.702713" fy="73.615715" id="radialGradient2639" xlink:href="#linearGradient10691" gradientUnits="userSpaceOnUse" gradientTransform="matrix(2.134235,0,0,0.6548403,17.851832,-4.93987)"/>
    <radialGradient cx="5" cy="43.5" r="2.5" fx="5" fy="43.5" id="radialGradient2641" xlink:href="#linearGradient3688" gradientUnits="userSpaceOnUse" gradientTransform="matrix(2.1092432,0,0,1.8,28.197985,-35.799854)"/>
  </defs>
  <g transform="translate(-2e-006)">
    <rect width="5.2631502" height="9" x="38.736778" y="38" style="opacity:0.4;fill:url(#radialGradient2641)"/>
    <rect width="5.2631502" height="9" x="-9.2631397" y="-47" transform="scale(-1)" style="opacity:0.4;fill:url(#radialGradient2556)"/>
    <rect width="29.47364" height="9" x="9.2631397" y="38" style="opacity:0.4;fill:url(#linearGradient2553)"/>
  </g>
  <g id="layer6"/>
  <path d="M 7.7526014,3.6464462 L 31.199616,3.6308212 C 31.199616,3.6308212 41.478553,13.174533 41.478553,13.811106 L 41.478553,43.417892 C 41.478553,44.054465 40.966077,44.56694 40.329504,44.56694 L 7.7526014,44.56694 C 7.1160285,44.56694 6.6035528,44.054465 6.6035528,43.417892 L 6.6035528,4.7954948 C 6.6035528,4.1589219 7.1160285,3.6464462 7.7526014,3.6464462 z" id="rect15391" style="fill:url(#radialGradient2575);stroke:url(#radialGradient2577);stroke-linecap:round;stroke-linejoin:round"/>
  <path d="M 7.8151023,4.5839462 L 32.691494,4.5839462 C 32.691494,4.5839462 40.44194,12.605373 40.44194,12.687946 L 40.44194,43.381282 C 40.44194,43.463855 40.375465,43.530331 40.292892,43.530331 L 7.8151023,43.530331 C 7.7325294,43.530331 7.6660538,43.463855 7.6660538,43.381282 L 7.6660538,4.7329948 C 7.6660538,4.6504219 7.7325294,4.5839462 7.8151023,4.5839462 z" id="rect15660" style="fill:none;stroke:url(#radialGradient2572);stroke-linecap:round;stroke-linejoin:round"/>
  <path d="M 40.985189,13.861445 C 40.256827,12.514817 34.882221,10.130934 32.084635,9.3314083 C 32.254143,10.904354 31.961856,15.649439 31.961856,15.649439 C 34.024356,14.274439 40.204485,13.699331 40.985189,13.861445 z" id="path5348" style="opacity:0.35714285;fill:url(#radialGradient2623)"/>
  <path d="M 41.410559,13.739267 C 41.423724,12.324125 35.058025,3.5320142 31.175441,3.6354934 C 32.148479,3.8684884 32.925796,9.803523 31.536076,12.616023 C 34.286076,12.616023 40.446694,11.881093 41.410559,13.739267 z" id="path2210" style="fill:url(#radialGradient2618);stroke:url(#radialGradient2620);stroke-linejoin:round"/>
  <path d="M 39.121563,11.586207 C 38.393201,10.239579 34.963027,6.5166576 33.040441,5.2796316 C 33.279381,6.7054805 33.577496,8.9620596 32.961856,11.524439 C 32.961856,11.524439 38.340859,11.424093 39.121563,11.586207 z" id="path2247" style="fill:none;stroke:url(#linearGradient2615)"/>
  <g transform="matrix(0.928889 0 0 1 1.71111 0)" style="fill:#b9b9b9">
    <rect width="18.055456" height="0.9375" rx="0.50463521" ry="0.46875" x="10" y="9.0625"/>
    <rect width="18.055456" height="0.9375" rx="0.50463521" ry="0.46875" x="10" y="11.0625"/>
    <rect width="18.055456" height="0.9375" rx="0.50463521" ry="0.46875" x="10" y="13"/>
    <rect width="18.055456" height="0.9375" rx="0.50463521" ry="0.46875" x="10" y="15.125"/>
    <rect width="28.125" height="0.9375" rx="0.50463516" ry="0.46875" x="10" y="19.0625"/>
    <rect width="18.055456" height="0.9375" rx="0.50463521" ry="0.46875" x="10" y="17.0625"/>
    <rect width="28.125" height="0.9375" rx="0.50463516" ry="0.46875" x="10" y="21.0625"/>
    <rect width="28.125" height="0.9375" rx="0.50463516" ry="0.46875" x="10" y="23.0625"/>
    <rect width="28.125" height="0.9375" rx="0.50463516" ry="0.46875" x="10" y="25.0625"/>
    <rect width="28.125" height="0.9375" rx="0.50463516" ry="0.46875" x="10" y="27.0625"/>
    <rect width="28.125" height="0.9375" rx="0.50463516" ry="0.46875" x="10" y="29.0625"/>
    <rect width="28.125" height="0.9375" rx="0.50463516" ry="0.46875" x="10" y="31.0625"/>
    <rect width="28.125" height="0.9375" rx="0.50463516" ry="0.46875" x="10" y="33.0625"/>
    <rect width="28.125" height="0.9375" rx="0.50463516" ry="0.46875" x="10" y="35.0625"/>
    <rect width="13.8125" height="0.9375" rx="0.50463516" ry="0.46875" x="10" y="37.0625"/>
  </g>
  <path d="M 47.584132,43.266662 C 47.584132,45.880879 40.677168,48 32.156995,48 C 23.636823,48 16.729858,45.880879 16.729858,43.266661 C 16.729858,40.652446 23.636823,38.533203 32.156995,38.533203 C 40.677168,38.533203 47.584132,40.652446 47.584132,43.266662 z" style="opacity:0.5;fill:url(#radialGradient2639)"/>
  <path d="M 45.5,32 C 45.5,39.455792 39.455965,45.5 32,45.5 C 24.544186,45.5 18.5,39.455792 18.5,32 C 18.5,24.544092 24.544186,18.5 32,18.5 C 39.455965,18.5 45.5,24.544092 45.5,32 L 45.5,32 z" id="path2860" style="fill:url(#linearGradient2636);stroke:#204a87;stroke-linecap:round;stroke-linejoin:round;stroke-miterlimit:0"/>
  <path d="M 44.488479,32 C 44.488479,38.892292 38.897247,44.479618 32,44.479618 C 25.102977,44.479618 19.511745,38.892292 19.511745,32 C 19.511745,25.10766 25.102977,19.520334 32,19.520334 C 38.897247,19.520334 44.488479,25.10766 44.488479,32 L 44.488479,32 z" style="opacity:0.5;fill:none;stroke:url(#linearGradient2633);stroke-linecap:round;stroke-linejoin:round;stroke-miterlimit:0"/>
  <path d="M 29.490645,24.031285 C 29.490645,23.304862 29.74911,22.747423 30.266034,22.25414 C 30.782964,21.751928 31.196526,21.5 31.944226,21.5 C 32.673457,21.5 33.224494,21.719169 33.732195,22.221382 C 34.249119,22.714665 34.507576,23.298311 34.507584,24.024734 C 34.507576,24.733258 34.249119,25.298613 33.732195,25.8 C 33.224494,26.294107 32.673457,26.5 31.944226,26.5 C 31.196526,26.5 30.782964,26.294106 30.266034,25.800826 C 29.74911,25.30758 29.490645,24.748779 29.490645,24.031285 M 34.501603,39.5 L 34.501603,28.5 L 27.5,28.5 L 27.5,30.5 L 31.505149,30.507848 L 31.5,39.5 L 27.5,39.5 L 27.5,41.5 C 30.5,41.5 36.589555,41.5 37.5,41.5 L 37.5,39.5 C 37.615232,39.472213 37.27487,39.51566 37.160156,39.51566 C 36.936197,39.51566 36.712239,39.51566 36.488281,39.51566 C 36.290364,39.51566 36.092447,39.51566 35.894531,39.51566 C 35.739473,39.51566 35.535697,39.5 35.382813,39.5 C 35.273438,39.5 35.164063,39.5 35.054688,39.5 C 34.971354,39.5 34.888021,39.5 34.804688,39.5 C 34.727894,39.5 34.639944,39.501818 34.585938,39.488316" style="fill:#ffffff;stroke:#3465a4;stroke-linecap:round;stroke-linejoin:round"/>
</svg>