<?xml version="1.0" standalone="no"?>
<!DOCTYPE svg PUBLIC "-//W3C//DTD SVG 20010904//EN"
 "http://www.w3.org/TR/2001/REC-SVG-20010904/DTD/svg10.dtd">
<svg version="1.0" xmlns="http://www.w3.org/2000/svg"
 width="840.000000pt" height="859.000000pt" viewBox="0 0 840.000000 859.000000"
 preserveAspectRatio="xMidYMid meet">
<metadata>
Created by potrace 1.16, written by Peter Selinger 2001-2019
</metadata>
<g transform="translate(0.000000,859.000000) scale(0.100000,-0.100000)"
fill="#000000" stroke="none">
<path d="M3970 8464 c-19 -2 -93 -9 -165 -15 -71 -6 -208 -24 -304 -40 -1070
-181 -2031 -779 -2676 -1664 -373 -513 -628 -1118 -734 -1746 -43 -257 -56
-414 -56 -704 0 -290 13 -447 56 -704 70 -417 195 -794 388 -1176 211 -417
454 -751 790 -1085 680 -677 1575 -1097 2541 -1192 174 -17 616 -17 790 0 526
52 1019 195 1485 431 412 209 744 449 1071 776 324 324 565 656 775 1070 235
464 377 954 431 1485 17 164 17 619 0 790 -52 523 -196 1020 -431 1485 -211
415 -451 747 -781 1075 -328 327 -647 559 -1055 766 -463 234 -926 373 -1440
430 -131 14 -607 27 -685 18z m561 -315 c274 -21 604 -89 878 -179 979 -322
1792 -1025 2255 -1947 203 -405 319 -796 388 -1303 17 -129 17 -699 0 -840
-95 -771 -364 -1416 -841 -2015 -118 -149 -409 -442 -559 -563 -592 -480
-1255 -758 -2032 -854 -143 -18 -690 -17 -830 0 -507 64 -902 183 -1325 396
-382 193 -673 404 -981 711 -254 252 -414 454 -586 738 -587 968 -719 2144
-363 3220 380 1150 1296 2066 2450 2452 268 89 629 164 882 184 161 12 510 12
664 0z"/>
<path d="M4080 6830 c-243 -38 -449 -209 -535 -440 -39 -104 -39 -232 -2 -530
32 -262 56 -466 172 -1480 46 -410 91 -791 100 -848 21 -146 64 -223 158 -285
189 -126 433 -66 541 132 30 57 40 122 101 651 70 618 213 1849 226 1950 31
244 22 343 -48 482 -88 176 -245 304 -433 353 -73 19 -210 26 -280 15z"/>
<path d="M4071 2824 c-172 -46 -313 -187 -365 -363 -21 -70 -21 -202 0 -272
45 -152 140 -264 281 -331 77 -37 93 -42 182 -46 165 -8 288 37 395 143 103
102 156 228 156 370 0 236 -158 440 -385 500 -73 19 -192 18 -264 -1z"/>
</g>
</svg>
