<?xml version="1.0" standalone="no"?>
<!DOCTYPE svg PUBLIC "-//W3C//DTD SVG 20010904//EN"
 "http://www.w3.org/TR/2001/REC-SVG-20010904/DTD/svg10.dtd">
<svg version="1.0" xmlns="http://www.w3.org/2000/svg"
 width="618.000000pt" height="500.000000pt" viewBox="0 0 618.000000 500.000000"
 preserveAspectRatio="xMidYMid meet">
<metadata>
Created by potrace 1.16, written by Peter Selinger 2001-2019
</metadata>
<g transform="translate(0.000000,500.000000) scale(0.100000,-0.100000)"
fill="#000000" stroke="none">
<path d="M425 4879 c-145 -50 -265 -171 -315 -318 -20 -61 -20 -69 -18 -2078
l3 -2018 37 -78 c51 -107 138 -194 245 -245 l78 -37 2618 -3 2617 -2 62 21
c128 43 235 139 297 269 l36 75 3 2018 2 2017 -21 62 c-49 147 -170 268 -318
318 -60 20 -71 20 -2663 20 -2596 -1 -2603 -1 -2663 -21z m5229 -415 l26 -27
0 -1937 0 -1937 -26 -27 -27 -26 -2537 0 -2537 0 -27 26 -26 27 0 1937 0 1937
26 27 27 26 2537 0 2537 0 27 -26z"/>
<path d="M1315 4081 c-96 -27 -164 -70 -250 -156 -130 -129 -175 -239 -175
-425 0 -185 45 -295 175 -426 86 -87 160 -132 262 -160 76 -20 250 -20 326 0
199 54 370 224 422 423 21 77 20 250 0 327 -26 98 -73 174 -160 261 -131 132
-240 176 -431 174 -71 0 -130 -6 -169 -18z"/>
<path d="M3190 2805 l-795 -795 -253 252 -253 253 -499 -505 -499 -505 -1
-302 0 -303 2205 0 2205 0 0 704 0 703 -654 647 c-360 355 -655 646 -657 646
-2 0 -362 -358 -799 -795z"/>
</g>
</svg>
