<?xml version="1.0" standalone="no"?>
<!DOCTYPE svg PUBLIC "-//W3C//DTD SVG 20010904//EN"
 "http://www.w3.org/TR/2001/REC-SVG-20010904/DTD/svg10.dtd">
<svg version="1.0" xmlns="http://www.w3.org/2000/svg"
 width="256.000000pt" height="256.000000pt" viewBox="0 0 256.000000 256.000000"
 preserveAspectRatio="xMidYMid meet">
<metadata>
Created by potrace 1.16, written by Peter Selinger 2001-2019
</metadata>
<g transform="translate(0.000000,256.000000) scale(0.100000,-0.100000)"
fill="#000000" stroke="none">
<path d="M1569 2475 c-3 -2 -248 -5 -546 -5 -461 -1 -544 -4 -560 -16 -17 -14
-16 -14 5 -4 13 7 26 9 30 6 3 -3 0 -6 -6 -6 -6 0 -24 -11 -41 -26 -16 -14
-34 -24 -38 -24 -4 1 -9 -4 -12 -11 -2 -7 1 -9 8 -5 7 5 8 1 4 -10 -5 -13 -8
-14 -11 -5 -3 8 -20 -3 -48 -30 l-44 -43 -63 62 -63 63 -25 -28 c-13 -15 -17
-22 -8 -16 13 10 25 2 74 -47 l59 -60 -59 -60 -59 -60 -23 22 c-22 21 -23 21
-23 2 0 -11 5 -25 12 -32 9 -9 9 -15 0 -24 -7 -7 -12 -21 -12 -32 0 -19 1 -19
23 2 l23 22 59 -60 59 -60 -59 -60 -59 -60 -23 22 -23 21 0 -24 c0 -14 5 -30
11 -36 8 -8 8 -13 0 -17 -13 -8 -15 -46 -2 -46 5 0 14 7 21 16 12 13 21 8 72
-43 l58 -57 -57 -58 -57 -58 -23 22 -23 21 0 -24 c0 -14 5 -30 11 -36 8 -8 8
-13 0 -17 -6 -4 -11 -19 -11 -33 l0 -26 23 21 23 22 57 -58 57 -58 -58 -57
c-51 -51 -60 -56 -72 -43 -7 9 -16 16 -21 16 -13 0 -11 -34 2 -47 8 -8 8 -13
0 -17 -6 -4 -11 -19 -11 -33 l0 -26 23 21 23 22 57 -58 57 -58 -58 -57 c-51
-51 -60 -56 -72 -43 -7 9 -16 16 -21 16 -13 0 -11 -34 2 -47 8 -8 8 -13 0 -17
-6 -4 -11 -19 -11 -33 l0 -26 23 21 23 22 59 -60 59 -60 -59 -60 -59 -60 -23
22 c-22 21 -23 21 -23 2 0 -11 5 -25 12 -32 9 -9 9 -15 0 -24 -7 -7 -12 -21
-12 -32 0 -19 1 -19 23 2 l23 22 59 -60 59 -60 -59 -60 -59 -60 -23 22 -23 21
0 -24 c0 -14 5 -30 11 -36 8 -8 8 -13 0 -17 -13 -8 -15 -46 -2 -46 5 0 14 7
21 16 12 13 21 8 72 -43 l58 -57 -57 -58 c-54 -54 -58 -57 -75 -41 -10 9 -21
13 -25 10 -3 -4 15 -28 41 -53 25 -26 49 -44 53 -41 3 4 -1 15 -10 25 -16 17
-13 21 41 75 l58 57 20 -22 c11 -13 33 -42 48 -66 22 -36 25 -46 15 -59 -11
-13 -9 -14 17 -11 16 2 28 8 27 15 -2 7 13 3 35 -10 41 -24 -87 -21 1199 -29
216 -2 385 0 375 4 -15 6 -14 7 3 7 11 1 35 10 53 21 19 12 30 15 26 9 -5 -9
-2 -10 9 -6 8 3 21 0 27 -8 6 -8 18 -11 26 -8 13 5 13 8 -1 23 -9 10 -13 24
-9 35 6 14 4 16 -6 10 -9 -6 -11 -4 -6 4 5 7 11 10 14 6 3 -3 27 16 54 42 l48
47 58 -57 c56 -55 82 -70 82 -45 0 7 -26 38 -57 70 l-57 58 54 55 c38 39 60
53 72 49 15 -5 18 1 18 37 0 33 -3 39 -13 31 -10 -9 -27 2 -72 48 l-59 60 54
55 c35 36 60 53 71 50 12 -4 16 3 17 36 2 34 -1 40 -16 35 -12 -4 -34 10 -72
49 l-54 55 54 55 c38 39 60 53 72 49 15 -4 18 1 18 36 0 35 -3 40 -18 36 -12
-4 -34 10 -72 49 l-54 55 59 60 c45 46 62 57 72 48 10 -8 13 -2 13 32 0 35 -3
41 -17 36 -12 -5 -34 10 -75 51 l-58 57 57 58 c41 41 63 56 75 52 15 -5 18 1
18 37 0 33 -3 39 -13 31 -10 -9 -27 2 -72 48 l-59 60 54 55 c38 39 60 53 72
49 15 -4 18 1 18 36 0 35 -3 40 -18 36 -12 -4 -34 10 -72 49 l-54 55 54 55
c30 30 61 54 70 52 11 -1 16 9 18 36 3 34 1 38 -15 33 -14 -4 -34 9 -73 49
l-54 55 57 58 c45 45 55 60 45 70 -10 10 -25 0 -70 -45 l-58 -58 -57 58 c-45
44 -55 59 -45 69 21 21 14 26 -38 26 -52 0 -59 -5 -38 -26 10 -10 0 -25 -45
-69 l-57 -58 -60 60 c-54 54 -58 60 -44 76 14 15 11 17 -35 17 -53 0 -60 -5
-38 -27 10 -10 2 -22 -39 -61 -36 -35 -48 -52 -41 -59 8 -8 26 3 62 39 l51 50
59 -60 60 -61 -51 -49 c-44 -42 -49 -51 -37 -63 12 -12 21 -7 63 37 l49 51 58
-58 58 -58 -51 -49 c-44 -42 -49 -51 -37 -63 12 -12 21 -7 63 37 l49 51 58
-58 58 -58 -51 -49 c-28 -27 -49 -53 -46 -57 4 -4 -127 125 -291 287 -163 162
-297 297 -297 300 0 2 37 -31 82 -75 48 -47 59 -55 25 -19 -32 33 -55 63 -52
67 3 4 2 5 -2 2 -3 -3 -16 4 -28 15 -12 11 -24 18 -26 15z m631 -150 l55 -55
-58 -58 -57 -57 -57 57 -58 58 55 55 c30 30 57 55 60 55 3 0 30 -25 60 -55z
m-1401 -7 l45 -49 -57 -57 -57 -57 -57 57 -57 57 45 49 c30 35 52 50 69 50 17
0 39 -15 69 -50z m280 0 l45 -49 -57 -57 -57 -57 -57 57 -57 57 45 49 c30 35
52 50 69 50 17 0 39 -15 69 -50z m284 4 l47 -48 -60 -59 -60 -60 -57 57 -57
57 45 49 c58 66 80 67 142 4z m-975 -192 c0 -40 -4 -49 -42 -82 l-42 -37 -59
59 -59 60 59 60 59 59 42 -37 c38 -33 42 -42 42 -82z m1092 0 c0 -67 -3 -79
-23 -98 l-23 -22 -59 60 -59 60 59 60 59 60 23 -22 c20 -19 23 -31 23 -98z
m-830 55 l55 -55 -57 -57 -57 -57 -49 45 c-29 26 -50 53 -51 66 -1 14 16 38
47 67 26 25 49 46 52 46 3 0 30 -25 60 -55z m280 0 l55 -55 -58 -58 -57 -57
-57 57 -58 58 55 55 c30 30 57 55 60 55 3 0 30 -25 60 -55z m280 0 l55 -55
-58 -58 -57 -57 -57 57 -58 58 55 55 c30 30 57 55 60 55 3 0 30 -25 60 -55z
m1130 0 l55 -55 -58 -58 -57 -57 -57 57 -58 58 55 55 c30 30 57 55 60 55 3 0
30 -25 60 -55z m-1550 -140 l54 -54 -50 -55 c-27 -29 -56 -54 -64 -54 -8 0
-37 25 -64 54 l-50 55 54 54 c30 30 57 55 60 55 3 0 30 -25 60 -55z m280 0
l54 -54 -50 -55 c-27 -29 -56 -54 -64 -54 -8 0 -37 25 -64 54 l-50 55 54 54
c30 30 57 55 60 55 3 0 30 -25 60 -55z m282 -2 l58 -57 -52 -53 c-29 -29 -57
-53 -63 -53 -6 0 -35 25 -65 55 l-54 55 54 55 c30 30 57 55 59 55 3 0 31 -26
63 -57z m-1000 -120 c31 -30 38 -44 38 -75 0 -31 -7 -44 -42 -77 l-43 -40 -58
57 -57 56 57 58 c32 32 60 58 62 58 3 0 22 -17 43 -37z m283 -3 c35 -36 37
-40 17 -40 -19 0 -22 -5 -22 -45 l0 -45 358 -2 357 -3 -356 -2 -356 -3 -23
-25 -24 -25 -48 47 c-29 28 -48 56 -48 70 0 19 83 112 100 113 3 0 24 -18 45
-40z m835 5 c18 -19 37 -32 41 -29 5 3 6 -1 3 -9 -3 -8 3 -20 13 -28 16 -13
17 -12 4 4 -23 29 -6 19 24 -15 17 -18 22 -26 12 -17 -17 15 -22 12 -75 -43
l-56 -59 -37 38 c-30 30 -38 47 -40 80 -3 37 1 48 31 78 19 19 37 35 40 35 3
0 21 -16 40 -35z m870 -20 l55 -55 -57 -57 -57 -57 -54 50 c-30 27 -55 53 -56
59 -1 10 99 115 109 115 3 0 30 -25 60 -55z m-1951 -337 c1 -31 -6 -43 -41
-77 l-43 -40 -58 57 -57 56 57 58 57 57 42 -37 c35 -30 42 -44 43 -74z m223
95 c8 -10 18 -26 21 -35 4 -10 13 -18 20 -18 20 0 52 -39 41 -49 -5 -5 -20
-11 -34 -14 -14 -2 265 -5 620 -5 430 0 637 3 621 9 -25 10 -24 10 37 72 l62
61 35 -34 c30 -29 35 -40 35 -82 0 -42 -4 -52 -37 -82 l-38 -35 -27 26 c-15
14 -25 31 -21 36 3 6 1 7 -5 3 -7 -4 -12 -2 -12 3 0 8 -199 11 -650 11 l-650
0 0 -22 c0 -13 -11 -30 -23 -39 -22 -16 -24 -15 -70 28 -61 57 -61 79 1 137
26 25 50 46 53 46 3 0 13 -8 21 -17z m1731 -41 l57 -58 -60 -59 -60 -59 -55
54 c-30 30 -55 59 -55 64 0 11 100 116 110 116 3 0 31 -26 63 -58z m-402 -229
c-25 -30 -30 -32 -91 -31 l-65 1 55 7 55 7 -56 1 c-41 2 -61 7 -74 22 -17 19
-16 19 71 23 49 1 -201 3 -556 3 -355 0 -599 -2 -542 -5 l103 -6 -56 -55 -55
-54 -60 59 c-32 32 -57 62 -54 67 3 4 300 8 660 8 595 0 654 1 654 16 0 12 5
11 19 -7 19 -23 19 -24 -8 -56z m-1552 -105 c1 -31 -6 -43 -41 -77 l-43 -40
-58 57 -57 56 57 58 57 57 42 -37 c35 -30 42 -44 43 -74z m259 -65 l-57 -57
-49 45 c-67 59 -67 83 -4 143 l47 45 60 -59 60 -60 -57 -57z m285 119 l57 -58
-60 -59 -60 -59 -60 59 -60 59 57 58 c32 32 60 58 63 58 3 0 31 -26 63 -58z
m269 -31 c3 -38 7 -47 24 -49 19 -3 16 -9 -28 -49 l-49 -47 -57 57 -57 57 60
60 59 60 23 -21 c15 -15 23 -35 25 -68z m867 -27 c1 -45 -3 -54 -34 -84 l-35
-34 -45 44 c-30 29 -42 47 -35 54 6 6 10 24 10 40 0 20 10 41 32 63 l31 32 38
-32 c34 -29 37 -37 38 -83z m274 58 l57 -58 -60 -59 -60 -59 -55 54 c-30 30
-55 59 -55 64 0 11 100 116 110 116 3 0 31 -26 63 -58z m-1556 -259 l-57 -58
-60 60 -60 59 57 58 58 58 60 -60 60 -60 -58 -57z m283 2 l-60 -60 -57 58 -58
57 60 60 59 60 58 -57 58 -58 -60 -60z m283 117 l57 -58 -60 -59 -60 -60 -57
57 -57 57 55 59 c29 33 56 60 59 61 3 0 31 -25 63 -57z m281 1 l55 -58 -57
-58 -56 -57 -58 57 -58 57 57 58 c32 32 58 58 59 58 1 0 27 -26 58 -57z m285
-5 l55 -59 -57 -57 -57 -57 -60 60 -60 59 57 58 c32 32 60 57 63 57 3 -1 30
-28 59 -61z m-1530 -200 c1 -26 -4 -50 -11 -54 -7 -5 -8 -3 -3 7 8 12 6 12 -8
0 -11 -8 -15 -22 -12 -35 3 -12 2 -15 -1 -8 -5 10 -10 9 -25 -4 -19 -17 -22
-16 -79 41 l-60 59 57 58 57 57 42 -37 c38 -33 42 -42 43 -84z m311 0 c0 -4
-46 -9 -102 -10 l-103 -2 100 -6 100 -6 -102 -2 -103 -2 0 27 c0 19 14 42 47
75 l47 48 58 -57 c32 -32 58 -61 58 -65z m513 -50 l-57 -58 -33 32 c-17 17
-31 35 -30 41 1 5 -5 12 -13 14 -13 4 -13 3 0 -6 8 -6 11 -11 5 -11 -13 0 -43
20 -30 20 6 0 3 5 -5 10 -12 8 -4 20 45 70 l59 60 58 -57 58 -57 -57 -58z
m277 -3 l-60 -60 -57 58 -58 57 60 60 59 60 58 -57 58 -58 -60 -60z m287 -2
l-57 -58 -60 60 -60 59 57 58 58 58 60 -60 60 -60 -58 -57z m291 57 c1 -51 -2
-57 -34 -84 l-35 -29 -60 59 -59 58 57 58 57 57 37 -32 c35 -30 37 -36 37 -87z
m-1141 58 c29 -29 53 -56 53 -60 0 -4 -49 -8 -110 -8 -60 0 -110 3 -110 7 0 8
102 113 109 113 3 0 29 -23 58 -52z m1413 -3 l55 -55 -57 -57 -57 -57 -54 50
c-30 27 -55 54 -56 61 -1 11 97 112 109 113 3 0 30 -25 60 -55z m-936 -197
c-9 -13 -188 -10 -203 5 -10 10 -11 9 -6 -5 7 -17 36 -18 439 -17 237 1 423 3
414 6 -23 6 -22 9 1 39 l19 24 4 -40 4 -40 -437 0 c-515 0 -497 -4 -403 91
l58 59 58 -57 c31 -31 55 -60 52 -65z m286 0 c0 -4 -52 -8 -115 -8 -63 0 -115
3 -115 7 0 4 26 33 57 65 l57 58 58 -57 c32 -32 58 -61 58 -65z m280 0 c0 -10
-214 -11 -224 -1 -3 4 19 33 51 65 l57 58 58 -57 c32 -32 58 -61 58 -65z
m-1621 -138 c0 -77 -2 -87 -23 -102 -23 -16 -24 -16 -82 43 l-58 59 58 59 c58
59 59 59 82 43 21 -15 23 -25 23 -102z m1991 55 l55 -55 -57 -57 -56 -56 -36
29 c-29 24 -35 36 -35 71 -1 23 -3 47 -4 55 -2 7 -2 10 0 6 3 -4 18 8 35 27
16 19 33 35 37 35 4 0 31 -25 61 -55z m-806 -179 c36 -15 76 -60 76 -86 0 -9
-9 -25 -20 -35 -19 -18 -20 -17 -21 6 -1 18 -2 20 -6 6 -4 -15 -8 -12 -21 15
-10 18 -33 41 -52 50 -19 10 -29 18 -22 18 7 0 23 -5 35 -11 21 -10 21 -10 3
5 -11 9 -27 17 -35 17 -9 1 -2 5 14 9 22 6 9 8 -47 9 l-78 1 1 -162 c1 -90 4
-150 8 -134 6 28 6 28 24 9 19 -21 12 -33 -25 -46 -17 -6 -18 6 -18 168 l0
175 75 0 c42 0 90 -6 109 -14z m-1202 -63 c15 -13 18 -31 18 -95 0 -71 -3 -82
-22 -98 -23 -19 -23 -19 -81 38 l-57 56 57 58 c32 32 59 58 62 58 2 0 13 -7
23 -17z m2011 -41 l57 -58 -57 -56 -58 -57 -37 35 c-34 31 -38 39 -38 84 0 44
4 54 33 80 17 16 34 30 37 30 3 0 31 -26 63 -58z"/>
</g>
</svg>
