<?xml version="1.0" encoding="UTF-8" standalone="no" ?>
<!DOCTYPE svg PUBLIC "-//W3C//DTD SVG 1.1//EN" "http://www.w3.org/Graphics/SVG/1.1/DTD/svg11.dtd">
<svg xmlns="http://www.w3.org/2000/svg" xmlns:xlink="http://www.w3.org/1999/xlink" version="1.1" width="350" height="350" viewBox="0 0 350 350" xml:space="preserve">
<desc>Created with Fabric.js 1.7.22</desc>
<defs>
</defs>
<g id="icon" style="stroke: none; stroke-width: 1; stroke-dasharray: none; stroke-linecap: butt; stroke-linejoin: miter; stroke-miterlimit: 10; fill: none; fill-rule: nonzero; opacity: 1;" transform="translate(-1.9444444444444287 -1.9444444444444287) scale(3.89 3.89)" >
	<path d="M 0 68.798 v 11.914 c 0 1.713 1.401 3.114 3.114 3.114 h 0 c 3.344 0 4.805 -2.642 4.805 -2.642 L 8.14 29.281 l 2.739 -2.827 l 72.894 -2.977 v -1.482 c 0 -2.396 -1.942 -4.338 -4.338 -4.338 H 50.236 c -1.15 0 -2.254 -0.457 -3.067 -1.27 l -8.943 -8.943 c -0.813 -0.813 -1.917 -1.27 -3.067 -1.27 H 4.338 C 1.942 6.174 0 8.116 0 10.512 v 7.146 v 2.332 V 68.798" style="stroke: none; stroke-width: 1; stroke-dasharray: none; stroke-linecap: butt; stroke-linejoin: miter; stroke-miterlimit: 10; fill: rgb(224,173,49); fill-rule: nonzero; opacity: 1;" transform=" matrix(1 0 0 1 0 0) " stroke-linecap="round" />
	<path d="M 3.114 83.826 L 3.114 83.826 c 1.713 0 3.114 -1.401 3.114 -3.114 V 27.81 c 0 -2.393 1.94 -4.333 4.333 -4.333 h 75.107 c 2.393 0 4.333 1.94 4.333 4.333 v 51.684 c 0 2.393 -1.94 4.333 -4.333 4.333 C 85.667 83.826 3.114 83.826 3.114 83.826 z" style="stroke: none; stroke-width: 1; stroke-dasharray: none; stroke-linecap: butt; stroke-linejoin: miter; stroke-miterlimit: 10; fill: rgb(255,200,67); fill-rule: nonzero; opacity: 1;" transform=" matrix(1 0 0 1 0 0) " stroke-linecap="round" />
</g>
</svg>