<?xml version="1.0" encoding="UTF-8" standalone="no"?>
<!-- Created with Inkscape (http://www.inkscape.org/) -->

<svg
   version="1.1"
   id="svg584"
   width="1000"
   height="638"
   viewBox="0 0 1000 638"
   xml:space="preserve"
   xmlns="http://www.w3.org/2000/svg"
   xmlns:svg="http://www.w3.org/2000/svg"><defs
     id="defs588"><filter
       style="color-interpolation-filters:sRGB"
       id="filter2441"
       x="-0.0078269609"
       y="-0.012820874"
       width="1.0156539"
       height="1.0256417"><feGaussianBlur
         stdDeviation="3.2318258"
         id="feGaussianBlur2443" /></filter></defs><g
     id="layer1"
     style="display:inline"><path
       style="display:inline;fill:none;fill-opacity:0.279492;stroke:#000000;stroke-width:1;stroke-dasharray:none;stroke-opacity:1"
       d="m 667.60343,194.15369 c 10.95583,2.01588 20.8493,9.62986 26.06838,20.06206 2.48013,4.95334 2.76986,6.6404 2.76986,16.1157 0,9.91885 -0.20861,11.00216 -3.33774,17.25981 -4.31897,8.63501 -13.18871,16.9074 -21.36309,19.9189 -3.22957,1.1904 -10.94424,2.84024 -17.14456,3.66648 -26.98394,3.59589 -38.9326,6.69546 -53.87516,13.97302 -13.05738,6.36017 -23.56895,13.85378 -34.54409,24.62657 -24.82446,24.36229 -37.96682,55.45574 -38.05953,90.02923 -0.0966,35.99285 12.53971,66.02424 38.53469,91.58262 20.25052,19.90828 42.68369,31.41733 70.42481,36.13336 7.60263,1.29101 20.07282,1.51504 77.11574,1.37835 37.42598,-0.0873 69.65605,-0.32656 71.62238,-0.52781 57.89282,-5.98044 105.13114,-48.82709 118.15761,-107.17357 2.62306,-11.74829 2.61533,-45.54945 -0.0115,-55.09197 -5.09547,-18.49461 -11.06013,-31.7173 -20.40117,-45.22213 -5.13024,-7.41349 -24.86696,-27.87765 -28.97731,-30.04429 -1.91999,-1.01156 -2.35266,-0.38541 -5.98786,8.67147 -8.41776,20.9483 -21.50216,43.07637 -35.76097,60.47058 -6.32394,7.71309 -6.79137,8.59592 -5.53972,10.54041 5.90286,9.19624 7.26654,11.96054 8.74998,17.71203 5.54745,21.54597 -7.93873,43.24648 -30.41054,48.91177 -6.91499,1.74669 -11.79027,1.87579 -64.76919,1.74289 -59.7703,-0.15568 -64.72669,-0.46325 -73.73937,-4.62489 -16.35648,-7.55246 -25.2919,-27.22152 -20.20029,-44.46802 4.71688,-15.98244 16.60372,-25.2269 36.31726,-28.24864 5.91059,-0.90561 39.95246,-10.7728 45.96735,-13.32332 16.71188,-7.08731 37.2135,-23.92942 51.368,-42.19847 11.5044,-14.85053 21.47899,-38.199 24.71628,-57.85855 1.95861,-11.88308 1.96634,-31.83768 0.0154,-43.67291 -4.31125,-26.19137 -17.44975,-50.52327 -37.41824,-69.31026 -16.13243,-15.1763 -31.57721,-23.54099 -55.02638,-29.80205 l -8.68045,-2.31775 c -119.74748,0 -253.08491,0 -362.36828,0 l -8.682,2.31775 c -23.44918,6.26106 -38.89357,14.62575 -55.02523,29.80205 -19.96926,18.78699 -33.10583,43.11889 -37.4194,69.31026 -1.94895,11.83523 -1.94237,31.78983 0.0147,43.67291 3.23768,19.65955 13.21265,43.00802 24.7182,57.85855 14.15412,18.26905 34.65651,35.11116 51.36917,42.19847 6.01451,2.55052 40.05522,12.41771 45.96387,13.32332 19.71548,3.02174 31.60232,12.2662 36.3192,28.24864 5.0916,17.2465 -3.84382,36.91556 -20.2003,44.46802 -9.01267,4.16164 -13.96791,4.46921 -73.73899,4.62489 -52.97853,0.1329 -57.85303,0.004 -64.7715,-1.74289 -22.46911,-5.66529 -35.95799,-27.3658 -30.40744,-48.91177 1.4815,-5.75149 2.84712,-8.51579 8.75036,-17.71203 1.24817,-1.94449 0.78384,-2.82732 -5.53972,-10.54041 -14.26035,-17.39421 -27.34669,-39.52228 -35.76136,-60.47058 -3.63829,-9.05688 -4.07058,-9.68303 -5.98977,-8.67147 -4.11076,2.16664 -23.84709,22.6308 -28.97578,30.04429 -9.34259,13.50483 -15.30764,26.72752 -20.4004,45.22213 -2.627692,9.54252 -2.635032,43.34368 -0.012,55.09197 13.02647,58.34648 60.26324,101.19313 118.15684,107.17357 1.96634,0.20125 34.19602,0.44047 71.62122,0.52781 57.0437,0.13669 69.51389,-0.0873 77.11652,-1.37835 27.74112,-4.71603 50.17429,-16.22508 70.42479,-36.13336 25.995,-25.55838 38.63128,-55.58977 38.53471,-91.58262 -0.0927,-34.57349 -13.23508,-65.66694 -38.05953,-90.02923 -10.97514,-10.77279 -21.48672,-18.2664 -34.54409,-24.62657 -14.94257,-7.27756 -26.89122,-10.37713 -53.87517,-13.97302 -6.19916,-0.82624 -13.91382,-2.47608 -17.14456,-3.66648 -8.17322,-3.0115 -17.04527,-11.28389 -21.36154,-19.9189 -3.12836,-6.25765 -3.33774,-7.34096 -3.33774,-17.25981 0,-9.4753 0.28973,-11.16236 2.76754,-16.1157 5.21909,-10.4322 15.11294,-18.04618 26.06954,-20.06206 114.07973,-2.38507 210.84615,-2.12982 329.20758,0 z"
       id="path1797" /><path
       style="display:inline;fill:#000000;fill-opacity:0;stroke:#000000;stroke-width:1;stroke-dasharray:none;stroke-opacity:1"
       d="M 248.99128,609.97356 C 207.34202,609.24139 202.61246,608.8051 182.9755,603.88382 154.47239,596.74057 124.69685,581.87224 100.95591,562.92763 90.749349,554.78304 74.062907,538.31181 66.316524,528.73496 53.307032,512.65132 39.263986,488.6306 32.049923,470.12168 9.4542016,412.14844 11.546944,350.22759 37.88416,297.49601 57.559772,258.10206 87.142583,227.76077 124.73593,208.41736 l 10.2281,-5.26279 1.68375,-11.31325 c 3.30647,-22.21654 9.4771,-41.74483 19.34246,-61.21368 30.11224,-59.425049 85.7086,-99.021599 150.81607,-107.41341 17.69379,-2.280581 374.65214,-2.292581 392.49134,-0.01319 52.49672,6.707709 99.46505,33.982753 131.27288,76.231619 21.94516,29.148741 35.77945,63.128321 39.63667,97.355081 l 0.7039,6.24594 8.05401,4.00933 c 39.23704,19.53229 70.60694,51.67412 90.21376,92.43361 13.19504,27.43048 19.0599,51.03961 20.17268,81.20598 3.25497,88.23713 -46.41177,170.29668 -126.21354,208.53043 -21.71939,10.40595 -44.56211,17.08287 -67.51614,19.73492 -11.13665,1.2867 -481.56983,2.16935 -546.63059,1.02561 z"
       id="path2328" /><path
       style="display:inline;fill:none;stroke:#000000;stroke-width:1;stroke-dasharray:none;stroke-opacity:1"
       d="m 244.29825,617.94788 c -42.41877,-0.75205 -47.23571,-1.20016 -67.23548,-6.25493 C 148.03302,604.35591 117.70735,589.08429 93.527787,569.62578 83.132637,561.26027 66.137897,544.34223 58.248391,534.50561 44.998538,517.9857 30.696031,493.31337 23.348679,474.30236 0.33548196,414.75655 2.4668886,351.15607 29.290711,296.99406 49.32985,256.53153 79.459236,225.36718 117.74716,205.4991 l 10.41708,-5.40557 1.71485,-11.62013 c 3.36758,-22.8192 9.65218,-42.8772 19.69983,-62.87417 30.66859,-61.037002 87.29216,-101.707646 153.60256,-110.327093 18.02067,-2.342444 381.57418,-2.35477 399.743,-0.01355 53.46664,6.889662 101.30278,34.904567 133.69827,78.299475 22.35064,29.939448 36.44051,64.840758 40.36901,99.995938 l 0.7169,6.41538 8.20282,4.11807 c 39.96196,20.06213 71.91149,53.07584 91.88053,94.94097 13.43884,28.17456 19.41204,52.4241 20.54541,83.40877 3.31518,90.63063 -47.26929,174.91614 -128.54547,214.18701 -22.12069,10.68822 -45.38543,17.54626 -68.76356,20.27026 -11.34241,1.32161 -490.46732,2.22818 -556.73014,1.05342 z"
       id="path448" /><path
       style="display:inline;fill:#ba86f0;fill-opacity:1;stroke:#000000;stroke-width:1;stroke-dasharray:none;stroke-opacity:1"
       d="m 667.60343,194.15369 c 10.95583,2.01588 20.8493,9.62986 26.06838,20.06206 2.48013,4.95334 2.76986,6.6404 2.76986,16.1157 0,9.91885 -0.20861,11.00216 -3.33774,17.25981 -4.31897,8.63501 -13.18871,16.9074 -21.36309,19.9189 -3.22957,1.1904 -10.94424,2.84024 -17.14456,3.66648 -26.98394,3.59589 -38.9326,6.69546 -53.87516,13.97302 -13.05738,6.36017 -23.56895,13.85378 -34.54409,24.62657 -24.82446,24.36229 -37.96682,55.45574 -38.05953,90.02923 -0.0966,35.99285 12.53971,66.02424 38.53469,91.58262 20.25052,19.90828 42.68369,31.41733 70.42481,36.13336 7.60263,1.29101 20.07282,1.51504 77.11574,1.37835 37.42598,-0.0873 69.65605,-0.32656 71.62238,-0.52781 57.89282,-5.98044 105.13114,-48.82709 118.15761,-107.17357 2.62306,-11.74829 2.61533,-45.54945 -0.0115,-55.09197 -5.09547,-18.49461 -11.06013,-31.7173 -20.40117,-45.22213 -5.13024,-7.41349 -24.86696,-27.87765 -28.97731,-30.04429 -1.91999,-1.01156 -2.35266,-0.38541 -5.98786,8.67147 -8.41776,20.9483 -21.50216,43.07637 -35.76097,60.47058 -6.32394,7.71309 -6.79137,8.59592 -5.53972,10.54041 5.90286,9.19624 7.26654,11.96054 8.74998,17.71203 5.54745,21.54597 -7.93873,43.24648 -30.41054,48.91177 -6.91499,1.74669 -11.79027,1.87579 -64.76919,1.74289 -59.7703,-0.15568 -64.72669,-0.46325 -73.73937,-4.62489 -16.35648,-7.55246 -25.2919,-27.22152 -20.20029,-44.46802 4.71688,-15.98244 16.60372,-25.2269 36.31726,-28.24864 5.91059,-0.90561 39.95246,-10.7728 45.96735,-13.32332 16.71188,-7.08731 37.2135,-23.92942 51.368,-42.19847 11.5044,-14.85053 21.47899,-38.199 24.71628,-57.85855 1.95861,-11.88308 1.96634,-31.83768 0.0154,-43.67291 -4.31125,-26.19137 -17.44975,-50.52327 -37.41824,-69.31026 -16.13243,-15.1763 -31.57721,-23.54099 -55.02638,-29.80205 l -8.68045,-2.31775 c -119.74748,0 -253.08491,0 -362.36828,0 l -8.682,2.31775 c -23.44918,6.26106 -38.89357,14.62575 -55.02523,29.80205 -19.96926,18.78699 -33.10583,43.11889 -37.4194,69.31026 -1.94895,11.83523 -1.94237,31.78983 0.0147,43.67291 3.23768,19.65955 13.21265,43.00802 24.7182,57.85855 14.15412,18.26905 34.65651,35.11116 51.36917,42.19847 6.01451,2.55052 40.05522,12.41771 45.96387,13.32332 19.71548,3.02174 31.60232,12.2662 36.3192,28.24864 5.0916,17.2465 -3.84382,36.91556 -20.2003,44.46802 -9.01267,4.16164 -13.96791,4.46921 -73.73899,4.62489 -52.97853,0.1329 -57.85303,0.004 -64.7715,-1.74289 -22.46911,-5.66529 -35.95799,-27.3658 -30.40744,-48.91177 1.4815,-5.75149 2.84712,-8.51579 8.75036,-17.71203 1.24817,-1.94449 0.78384,-2.82732 -5.53972,-10.54041 -14.26035,-17.39421 -27.34669,-39.52228 -35.76136,-60.47058 -3.63829,-9.05688 -4.07058,-9.68303 -5.98977,-8.67147 -4.11076,2.16664 -23.84709,22.6308 -28.97578,30.04429 -9.34259,13.50483 -15.30764,26.72752 -20.4004,45.22213 -2.627692,9.54252 -2.635032,43.34368 -0.012,55.09197 13.02647,58.34648 60.26324,101.19313 118.15684,107.17357 1.96634,0.20125 34.19602,0.44047 71.62122,0.52781 57.0437,0.13669 69.51389,-0.0873 77.11652,-1.37835 27.74112,-4.71603 50.17429,-16.22508 70.42479,-36.13336 25.995,-25.55838 38.63128,-55.58977 38.53471,-91.58262 -0.0927,-34.57349 -13.23508,-65.66694 -38.05953,-90.02923 -10.97514,-10.77279 -21.48672,-18.2664 -34.54409,-24.62657 -14.94257,-7.27756 -26.89122,-10.37713 -53.87517,-13.97302 -6.19916,-0.82624 -13.91382,-2.47608 -17.14456,-3.66648 -8.17322,-3.0115 -17.04527,-11.28389 -21.36154,-19.9189 -3.12836,-6.25765 -3.33774,-7.34096 -3.33774,-17.25981 0,-9.4753 0.28973,-11.16236 2.76754,-16.1157 5.21909,-10.4322 15.11294,-18.04618 26.06954,-20.06206 114.07973,-2.38507 210.84615,-2.12982 329.20758,0 z"
       id="path1970" /><path
       id="path2325"
       style="display:inline;fill:#2d2d2d;fill-opacity:1;stroke:#000000;stroke-width:1;stroke-dasharray:none;stroke-opacity:1"
       d="m 502.99805,21.498047 c -93.68112,0.0031 -187.34452,0.576507 -196.19141,1.716797 -65.1074,8.391802 -120.7042,47.98712 -150.81641,107.412106 -9.86535,19.46883 -16.03533,38.99833 -19.34179,61.21485 l -1.6836,11.3125 -10.22851,5.26367 c -37.593311,19.34339 -67.175972,49.68421 -86.851564,89.07812 -26.33719,52.73153 -28.4296836,114.65182 -5.833985,172.625 7.214056,18.50891 21.256146,42.52966 34.265625,58.61329 7.746376,9.57684 24.432121,26.04877 34.638674,34.19335 23.74091,18.9446 53.51645,33.81379 82.01953,40.95704 19.63694,4.92127 24.36836,5.35572 66.01758,6.08789 65.06069,1.14374 535.49226,0.2613 546.6289,-1.02539 22.95401,-2.65205 45.79821,-9.32844 67.51758,-19.73438 79.80169,-38.23371 129.46786,-120.29421 126.21289,-208.53125 -1.11278,-30.16634 -6.97685,-53.77462 -20.17187,-81.20508 -19.6068,-40.75945 -50.97785,-72.90132 -90.21485,-92.43359 l -8.05468,-4.00977 -0.70313,-6.24609 C 866.34982,162.56038 852.51545,128.58231 830.57031,99.433594 798.76251,57.18477 751.79354,29.908874 699.29688,23.201172 690.37728,22.061478 596.67916,21.494898 502.99805,21.498047 Z M 321.81641,103.06445 h 362.36718 l 8.68164,2.31836 c 23.44915,6.26106 38.89298,14.6245 55.02539,29.80078 19.96848,18.78697 33.10673,43.11921 37.41797,69.31055 1.95094,11.83522 1.94299,31.79076 -0.0156,43.67383 -3.23729,19.65953 -13.21046,43.00691 -24.71485,57.85742 -14.15448,18.26903 -34.65727,35.11192 -51.36914,42.19922 -6.01488,2.55052 -40.05621,12.41666 -45.96679,13.32227 -19.71352,3.02173 -31.60149,12.26757 -36.31836,28.25 -5.09161,17.24648 3.84471,36.91434 20.20117,44.46679 9.01267,4.16164 13.96999,4.46932 73.74023,4.625 52.97887,0.1329 57.8526,0.005 64.76758,-1.74219 22.47179,-5.66528 35.95956,-27.36616 30.41211,-48.9121 -1.48344,-5.75149 -2.84714,-8.51471 -8.75,-17.71094 -1.25165,-1.94449 -0.78487,-2.82794 5.53906,-10.54102 14.2588,-17.39419 27.34397,-39.52242 35.76172,-60.4707 3.6352,-9.05687 4.06634,-9.68344 5.98633,-8.67188 4.11035,2.16664 23.84828,22.63144 28.97852,30.04493 9.34103,13.50481 15.30492,26.72611 20.40039,45.2207 2.62682,9.54251 2.63477,43.34547 0.0117,55.09375 -13.02646,58.34642 -60.26544,101.19144 -118.15821,107.17187 -1.96632,0.20125 -34.19515,0.442 -71.62109,0.5293 -57.04286,0.13669 -69.51457,-0.0879 -77.11719,-1.37891 -27.74109,-4.71602 -50.17333,-16.22455 -70.42383,-36.13281 -25.99495,-25.55835 -38.63175,-55.59117 -38.53515,-91.58398 0.0927,-34.57346 13.23611,-65.66703 38.06054,-90.0293 10.97513,-10.77278 21.48561,-18.26484 34.54297,-24.625 14.94255,-7.27755 26.89109,-10.37872 53.875,-13.97461 6.20032,-0.82624 13.91497,-2.47562 17.14453,-3.66601 8.17438,-3.0115 17.04432,-11.28297 21.36329,-19.91797 3.12912,-6.25765 3.33789,-7.34093 3.33789,-17.25977 0,-9.47529 -0.28941,-11.16385 -2.76953,-16.11719 -5.21908,-10.43219 -15.11255,-18.04467 -26.06836,-20.06054 -118.36132,-2.12982 -215.12742,-2.38507 -329.20704,0 -10.95658,2.01587 -20.85122,9.62835 -26.07031,20.06054 -2.47781,4.95334 -2.76758,6.6419 -2.76758,16.11719 0,9.91884 0.20954,11.00212 3.33789,17.25977 4.31627,8.635 13.18812,16.90647 21.36133,19.91797 3.23074,1.19039 10.94538,2.83977 17.14453,3.66601 26.98393,3.59589 38.93245,6.69706 53.875,13.97461 13.05736,6.36016 23.5698,13.85222 34.54493,24.625 24.82442,24.36227 37.96589,55.45584 38.05859,90.0293 0.0966,35.99281 -12.53823,66.02563 -38.5332,91.58398 -20.25048,19.90826 -42.68469,31.41679 -70.42578,36.13281 -7.60263,1.29105 -20.07355,1.5156 -77.11719,1.37891 -37.42517,-0.0873 -69.65476,-0.32805 -71.6211,-0.5293 -57.89354,-5.98043 -105.12979,-48.82545 -118.15625,-107.17187 -2.623026,-11.74828 -2.615967,-45.55124 0.0117,-55.09375 5.09276,-18.49459 11.05781,-31.71589 20.40039,-45.2207 5.12869,-7.41349 24.86581,-27.87829 28.97657,-30.04493 1.91918,-1.01156 2.35194,-0.38499 5.99023,8.67188 8.41466,20.94828 21.49943,43.07651 35.75977,60.4707 6.32355,7.71308 6.78918,8.59653 5.54101,10.54102 -5.90323,9.19623 -7.27045,11.95945 -8.75195,17.71094 -5.55055,21.54594 7.93911,43.24682 30.4082,48.9121 6.91846,1.74689 11.79301,1.87509 64.77149,1.74219 59.77102,-0.15568 64.72562,-0.46336 73.73828,-4.625 16.35646,-7.55245 25.29276,-27.22031 20.20117,-44.46679 -4.71688,-15.98243 -16.6029,-25.22827 -36.31836,-28.25 -5.90864,-0.90561 -39.95034,-10.77175 -45.96484,-13.32227 -16.71265,-7.0873 -37.21504,-23.93019 -51.36914,-42.19922 -11.50554,-14.85051 -21.48108,-38.19789 -24.71876,-57.85742 -1.95706,-11.88307 -1.96261,-31.83861 -0.0137,-43.67383 4.31357,-26.19134 17.45068,-50.52358 37.41993,-69.31055 16.13164,-15.17628 31.57428,-23.53972 55.02343,-29.80078 z" /><path
       id="path2334"
       style="display:inline;fill:#ba86f0;fill-opacity:1;stroke:none;stroke-width:0;stroke-dasharray:none;stroke-opacity:1"
       d="m 502.99805,13.509766 c -95.41197,0.0032 -190.80608,0.590498 -199.81641,1.761718 -66.31033,8.619439 -122.93496,49.291184 -153.60352,110.328126 -10.04763,19.99695 -16.33164,40.05387 -19.69921,62.87305 L 128.16406,200.09375 117.74805,205.5 C 79.460161,225.36806 49.330135,256.53165 29.291016,296.99414 2.46722,351.1561 0.33643535,414.75698 23.349609,474.30273 c 7.347345,19.011 21.648598,43.68324 34.898438,60.20313 7.889498,9.83661 24.884157,26.75364 35.279297,35.11914 24.179536,19.45849 54.505436,34.73133 83.535156,42.06836 19.99975,5.05476 24.8176,5.50186 67.23633,6.25391 66.26275,1.17475 545.38807,0.26887 556.73047,-1.05274 23.3781,-2.724 46.64105,-9.58132 68.76172,-20.26953 81.27609,-39.27083 131.86208,-123.55696 128.54687,-214.1875 -1.13337,-30.98464 -7.10609,-55.23367 -20.54492,-83.4082 -19.96902,-41.86509 -51.91894,-74.8793 -91.88086,-94.94141 l -8.20313,-4.11914 -0.71679,-6.41406 C 873.06369,158.39954 858.97366,123.49801 836.62305,93.558594 804.22759,50.163729 756.39041,22.147468 702.92383,15.257812 693.83943,14.087204 598.41002,13.506531 502.99805,13.509766 Z m 0,7.988281 c 93.68111,-0.0031 187.37923,0.563431 196.29883,1.703125 52.49666,6.707702 99.46563,33.983598 131.27343,76.232422 21.94514,29.148716 35.77951,63.126786 39.63672,97.353516 l 0.70313,6.24609 8.05468,4.00977 c 39.237,19.53227 70.60805,51.67414 90.21485,92.43359 13.19502,27.43046 19.05909,51.03874 20.17187,81.20508 3.25497,88.23704 -46.4112,170.29754 -126.21289,208.53125 -21.71937,10.40594 -44.56357,17.08233 -67.51758,19.73438 -11.13664,1.28669 -481.56821,2.16913 -546.6289,1.02539 -41.64922,-0.73217 -46.38064,-1.16662 -66.01758,-6.08789 -28.50308,-7.14325 -58.27862,-22.01244 -82.01953,-40.95704 C 90.748527,554.78315 74.062782,538.31122 66.316406,528.73438 53.306927,512.65075 39.264837,488.63 32.050781,470.12109 9.4550824,412.14791 11.547576,350.22762 37.884766,297.49609 57.560358,258.10218 87.143019,227.76136 124.73633,208.41797 l 10.22851,-5.26367 1.6836,-11.3125 c 3.30646,-22.21652 9.47644,-41.74602 19.34179,-61.21485 30.11221,-59.424986 85.70901,-99.020304 150.81641,-107.412106 8.84689,-1.14029 102.51029,-1.713648 196.19141,-1.716797 z" /><path
       id="path2439"
       style="display:inline;fill:#ba86f0;fill-opacity:1;stroke:none;stroke-width:0;stroke-dasharray:none;stroke-opacity:1;filter:url(#filter2441)"
       d="m 502.99805,13.509766 c -95.41197,0.0032 -190.80608,0.590498 -199.81641,1.761718 -66.31033,8.619439 -122.93496,49.291184 -153.60352,110.328126 -10.04763,19.99695 -16.33164,40.05387 -19.69921,62.87305 L 128.16406,200.09375 117.74805,205.5 C 79.460161,225.36806 49.330135,256.53165 29.291016,296.99414 2.46722,351.1561 0.33643535,414.75698 23.349609,474.30273 c 7.347345,19.011 21.648598,43.68324 34.898438,60.20313 7.889498,9.83661 24.884157,26.75364 35.279297,35.11914 24.179536,19.45849 54.505436,34.73133 83.535156,42.06836 19.99975,5.05476 24.8176,5.50186 67.23633,6.25391 66.26275,1.17475 545.38807,0.26887 556.73047,-1.05274 23.3781,-2.724 46.64105,-9.58132 68.76172,-20.26953 81.27609,-39.27083 131.86208,-123.55696 128.54687,-214.1875 -1.13337,-30.98464 -7.10609,-55.23367 -20.54492,-83.4082 -19.96902,-41.86509 -51.91894,-74.8793 -91.88086,-94.94141 l -8.20313,-4.11914 -0.71679,-6.41406 C 873.06369,158.39954 858.97366,123.49801 836.62305,93.558594 804.22759,50.163729 756.39041,22.147468 702.92383,15.257812 693.83943,14.087204 598.41002,13.506531 502.99805,13.509766 Z m 0,7.988281 c 93.68111,-0.0031 187.37923,0.563431 196.29883,1.703125 52.49666,6.707702 99.46563,33.983598 131.27343,76.232422 21.94514,29.148716 35.77951,63.126786 39.63672,97.353516 l 0.70313,6.24609 8.05468,4.00977 c 39.237,19.53227 70.60805,51.67414 90.21485,92.43359 13.19502,27.43046 19.05909,51.03874 20.17187,81.20508 3.25497,88.23704 -46.4112,170.29754 -126.21289,208.53125 -21.71937,10.40594 -44.56357,17.08233 -67.51758,19.73438 -11.13664,1.28669 -481.56821,2.16913 -546.6289,1.02539 -41.64922,-0.73217 -46.38064,-1.16662 -66.01758,-6.08789 -28.50308,-7.14325 -58.27862,-22.01244 -82.01953,-40.95704 C 90.748527,554.78315 74.062782,538.31122 66.316406,528.73438 53.306927,512.65075 39.264837,488.63 32.050781,470.12109 9.4550824,412.14791 11.547576,350.22762 37.884766,297.49609 57.560358,258.10218 87.143019,227.76136 124.73633,208.41797 l 10.22851,-5.26367 1.6836,-11.3125 c 3.30646,-22.21652 9.47644,-41.74602 19.34179,-61.21485 30.11221,-59.424986 85.70901,-99.020304 150.81641,-107.412106 8.84689,-1.14029 102.51029,-1.713648 196.19141,-1.716797 z" /></g></svg>
