<?xml version="1.0" encoding="UTF-8" standalone="no"?>
<!-- Created with Inkscape (http://www.inkscape.org/) -->

<svg
   version="1.1"
   id="svg584"
   width="1000"
   height="638"
   viewBox="0 0 1000 638"
   xml:space="preserve"
   xmlns="http://www.w3.org/2000/svg"
   xmlns:svg="http://www.w3.org/2000/svg"><defs
     id="defs588"><filter
       style="color-interpolation-filters:sRGB"
       id="filter2441"
       x="-0.0078269609"
       y="-0.012820874"
       width="1.0156539"
       height="1.0256417"><feGaussianBlur
         stdDeviation="3.2318258"
         id="feGaussianBlur2443" /></filter></defs><g
     id="layer1"
     style="display:inline"><path
       style="display:inline;fill:none;fill-opacity:0.279492;stroke:#000000;stroke-width:1;stroke-dasharray:none;stroke-opacity:1"
       d="M65,34 L37,52 A1 1 0 0 0 44 60 L70.5,44.5 A1 1 0 0 0 65,34Z M64,67 L36,85 A1 1 0 0 0 42 94 L68,77.5 A1 1 0 0 0 64,67Z"
       id="path1797" /><path
       style="display:inline;fill:#000000;fill-opacity:0;stroke:#000000;stroke-width:1;stroke-dasharray:none;stroke-opacity:1"
       d="M45.41,108.86A21.81,21.81,0,0,1,22,100.18,20.2,20.2,0,0,1,18.53,84.9a19,19,0,0,1,.65-2.57l.52-1.58,1.41,1a35.32,35.32,0,0,0,10.75,5.37l1,.31-.1,1a6.2,6.2,0,0,0,1.11,4.08A6.57,6.57,0,0,0,41,95.19a6,6,0,0,0,1.68-.74L70.11,76.94a5.76,5.76,0,0,0,2.59-3.83,6.09,6.09,0,0,0-1-4.6,6.58,6.58,0,0,0-7.06-2.62,6.21,6.21,0,0,0-1.69.74L52.43,73.31a19.88,19.88,0,0,1-5.58,2.45,21.82,21.82,0,0,1-23.43-8.68A20.2,20.2,0,0,1,20,51.8a19,19,0,0,1,8.56-12.7L56,21.59a19.88,19.88,0,0,1,5.58-2.45A21.81,21.81,0,0,1,85,27.82,20.2,20.2,0,0,1,88.47,43.1a19,19,0,0,1-.65,2.57l-.52,1.58-1.41-1a35.32,35.32,0,0,0-10.75-5.37l-1-.31.1-1a6.2,6.2,0,0,0-1.11-4.08,6.57,6.57,0,0,0-7.06-2.62,6,6,0,0,0-1.68.74L36.89,51.06a5.71,5.71,0,0,0-2.58,3.83,6,6,0,0,0,1,4.6,6.58,6.58,0,0,0,7.06,2.62,6.21,6.21,0,0,0,1.69-.74l10.48-6.68a19.88,19.88,0,0,1,5.58-2.45,21.82,21.82,0,0,1,23.43,8.68A20.2,20.2,0,0,1,87,76.2a19,19,0,0,1-8.56,12.7L51,106.41a19.88,19.88,0,0,1-5.58,2.45"
       id="path2328" /></g></svg>
