<?xml version="1.0" encoding="UTF-8" standalone="no"?>
<!DOCTYPE svg PUBLIC "-//W3C//DTD SVG 1.1//EN" "http://www.w3.org/Graphics/SVG/1.1/DTD/svg11.dtd">
<!-- Created with Vectornator (http://vectornator.io/) -->
<svg stroke-miterlimit="10" style="fill-rule:nonzero;clip-rule:evenodd;stroke-linecap:round;stroke-linejoin:round;" version="1.1" viewBox="0 0 1000 638" xml:space="preserve" xmlns="http://www.w3.org/2000/svg" xmlns:xlink="http://www.w3.org/1999/xlink">
<defs/>
<g id="layer1">
<path d="M667.603 194.154C678.559 196.17 688.453 203.784 693.672 214.216C696.152 219.169 696.442 220.856 696.442 230.331C696.442 240.25 696.233 241.334 693.104 247.591C688.785 256.226 679.915 264.499 671.741 267.51C668.511 268.701 660.797 270.35 654.596 271.177C627.612 274.773 615.664 277.872 600.721 285.15C587.664 291.51 577.152 299.003 566.177 309.776C541.353 334.139 528.21 365.232 528.118 399.805C528.021 435.798 540.657 465.83 566.652 491.388C586.903 511.296 609.336 522.805 637.077 527.521C644.68 528.812 657.15 529.036 714.193 528.9C751.619 528.812 783.849 528.573 785.815 528.372C843.708 522.392 890.946 479.545 903.973 421.198C906.596 409.45 906.588 375.649 903.961 366.106C898.866 347.612 892.901 334.389 883.56 320.884C878.43 313.471 858.693 293.007 854.583 290.84C852.663 289.828 852.23 290.455 848.595 299.511C840.177 320.46 827.093 342.588 812.834 359.982C806.51 367.695 806.043 368.578 807.294 370.522C813.197 379.719 814.561 382.483 816.044 388.235C821.592 409.78 808.105 431.481 785.634 437.146C778.719 438.893 773.843 439.022 720.864 438.889C661.094 438.733 656.138 438.426 647.125 434.264C630.769 426.712 621.833 407.043 626.925 389.796C631.642 373.814 643.529 364.569 663.242 361.548C669.153 360.642 703.195 350.775 709.209 348.224C725.921 341.137 746.423 324.295 760.577 306.026C772.082 291.175 782.056 267.827 785.294 248.167C787.252 236.284 787.26 216.33 785.309 204.494C780.998 178.303 767.859 153.971 747.891 135.184C731.758 120.008 716.314 111.643 692.864 105.382L684.184 103.064C564.437 103.064 431.099 103.064 321.816 103.064L313.134 105.382C289.685 111.643 274.24 120.008 258.109 135.184C238.139 153.971 225.003 178.303 220.689 204.494C218.74 216.33 218.747 236.284 220.704 248.167C223.942 267.827 233.916 291.175 245.422 306.026C259.576 324.295 280.079 341.137 296.791 348.224C302.806 350.775 336.846 360.642 342.755 361.548C362.471 364.569 374.357 373.814 379.074 389.796C384.166 407.043 375.23 426.712 358.874 434.264C349.861 438.426 344.906 438.733 285.135 438.889C232.156 439.022 227.282 438.893 220.363 437.146C197.894 431.481 184.405 409.78 189.956 388.235C191.438 382.483 192.803 379.719 198.706 370.522C199.955 368.578 199.49 367.695 193.167 359.982C178.906 342.588 165.82 320.46 157.405 299.511C153.767 290.455 153.335 289.828 151.416 290.84C147.305 293.007 127.568 313.471 122.44 320.884C113.097 334.389 107.132 347.612 102.039 366.106C99.4117 375.649 99.4043 409.45 102.027 421.198C115.054 479.545 162.291 522.392 220.184 528.372C222.151 528.573 254.38 528.812 291.805 528.9C348.849 529.036 361.319 528.812 368.922 527.521C396.663 522.805 419.096 511.296 439.347 491.388C465.342 465.83 477.978 435.798 477.881 399.805C477.789 365.232 464.646 334.139 439.822 309.776C428.847 299.003 418.335 291.51 405.278 285.15C390.335 277.872 378.387 274.773 351.403 271.177C345.203 270.35 337.489 268.701 334.258 267.51C326.085 264.499 317.213 256.226 312.897 247.591C309.768 241.334 309.559 240.25 309.559 230.331C309.559 220.856 309.849 219.169 312.326 214.216C317.545 203.784 327.439 196.17 338.396 194.154C452.476 191.769 549.242 192.024 667.603 194.154Z" fill="none" opacity="1" stroke="#000000" stroke-linecap="butt" stroke-linejoin="miter" stroke-width="1"/>
<path d="M248.991 609.974C207.342 609.241 202.612 608.805 182.975 603.884C154.472 596.741 124.697 581.872 100.956 562.928C90.7494 554.783 74.0629 538.312 66.3165 528.735C53.307 512.651 39.264 488.631 32.0499 470.122C9.4542 412.148 11.5469 350.228 37.8842 297.496C57.5598 258.102 87.1426 227.761 124.736 208.417L134.964 203.155L136.648 191.841C139.954 169.625 146.125 150.096 155.99 130.628C186.102 71.2026 241.699 31.606 306.806 23.2142C324.5 20.9337 681.458 20.9217 699.298 23.201C751.794 29.9088 798.763 57.1838 830.571 99.4327C852.516 128.581 866.35 162.561 870.207 196.788L870.911 203.034L878.965 207.043C918.202 226.575 949.572 258.717 969.179 299.477C982.374 326.907 988.239 350.516 989.352 380.683C992.607 468.92 942.94 550.979 863.138 589.213C841.419 599.619 818.576 606.296 795.622 608.948C784.485 610.235 314.052 611.117 248.991 609.974Z" fill="#000000" fill-opacity="0" fill-rule="nonzero" opacity="0" stroke="#000000" stroke-linecap="butt" stroke-linejoin="miter" stroke-width="1"/>
<path d="M244.298 617.948C201.879 617.196 197.063 616.748 177.063 611.693C148.033 604.356 117.707 589.084 93.5278 569.626C83.1326 561.26 66.1379 544.342 58.2484 534.506C44.9985 517.986 30.696 493.313 23.3487 474.302C0.335482 414.757 2.46689 351.156 29.2907 296.994C49.3298 256.532 79.4592 225.367 117.747 205.499L128.164 200.094L129.879 188.473C133.247 165.654 139.531 145.596 149.579 125.599C180.248 64.5622 236.871 23.8916 303.181 15.2721C321.202 12.9297 684.756 12.9174 702.924 15.2586C756.391 22.1482 804.227 50.1632 836.623 93.5581C858.973 123.498 873.063 158.399 876.992 193.554L877.709 199.969L885.911 204.087C925.873 224.15 957.823 257.163 977.792 299.028C991.231 327.203 997.204 351.453 998.337 382.437C1001.65 473.068 951.068 557.353 869.792 596.624C847.671 607.312 824.407 614.17 801.028 616.894C789.686 618.216 310.561 619.123 244.298 617.948Z" fill="none" opacity="0" stroke="#000000" stroke-linecap="butt" stroke-linejoin="miter" stroke-width="1"/>
<path d="M667.603 194.154C678.559 196.17 688.453 203.784 693.672 214.216C696.152 219.169 696.442 220.856 696.442 230.331C696.442 240.25 696.233 241.334 693.104 247.591C688.785 256.226 679.915 264.499 671.741 267.51C668.511 268.701 660.797 270.35 654.596 271.177C627.612 274.773 615.664 277.872 600.721 285.15C587.664 291.51 577.152 299.003 566.177 309.776C541.353 334.139 528.21 365.232 528.118 399.805C528.021 435.798 540.657 465.83 566.652 491.388C586.903 511.296 609.336 522.805 637.077 527.521C644.68 528.812 657.15 529.036 714.193 528.9C751.619 528.812 783.849 528.573 785.815 528.372C843.708 522.392 890.946 479.545 903.973 421.198C906.596 409.45 906.588 375.649 903.961 366.106C898.866 347.612 892.901 334.389 883.56 320.884C878.43 313.471 858.693 293.007 854.583 290.84C852.663 289.828 852.23 290.455 848.595 299.511C840.177 320.46 827.093 342.588 812.834 359.982C806.51 367.695 806.043 368.578 807.294 370.522C813.197 379.719 814.561 382.483 816.044 388.235C821.592 409.78 808.105 431.481 785.634 437.146C778.719 438.893 773.843 439.022 720.864 438.889C661.094 438.733 656.138 438.426 647.125 434.264C630.769 426.712 621.833 407.043 626.925 389.796C631.642 373.814 643.529 364.569 663.242 361.548C669.153 360.642 703.195 350.775 709.209 348.224C725.921 341.137 746.423 324.295 760.577 306.026C772.082 291.175 782.056 267.827 785.294 248.167C787.252 236.284 787.26 216.33 785.309 204.494C780.998 178.303 767.859 153.971 747.891 135.184C731.758 120.008 716.314 111.643 692.864 105.382L684.184 103.064C564.437 103.064 431.099 103.064 321.816 103.064L313.134 105.382C289.685 111.643 274.24 120.008 258.109 135.184C238.139 153.971 225.003 178.303 220.689 204.494C218.74 216.33 218.747 236.284 220.704 248.167C223.942 267.827 233.916 291.175 245.422 306.026C259.576 324.295 280.079 341.137 296.791 348.224C302.806 350.775 336.846 360.642 342.755 361.548C362.471 364.569 374.357 373.814 379.074 389.796C384.166 407.043 375.23 426.712 358.874 434.264C349.861 438.426 344.906 438.733 285.135 438.889C232.156 439.022 227.282 438.893 220.363 437.146C197.894 431.481 184.405 409.78 189.956 388.235C191.438 382.483 192.803 379.719 198.706 370.522C199.955 368.578 199.49 367.695 193.167 359.982C178.906 342.588 165.82 320.46 157.405 299.511C153.767 290.455 153.335 289.828 151.416 290.84C147.305 293.007 127.568 313.471 122.44 320.884C113.097 334.389 107.132 347.612 102.039 366.106C99.4117 375.649 99.4043 409.45 102.027 421.198C115.054 479.545 162.291 522.392 220.184 528.372C222.151 528.573 254.38 528.812 291.805 528.9C348.849 529.036 361.319 528.812 368.922 527.521C396.663 522.805 419.096 511.296 439.347 491.388C465.342 465.83 477.978 435.798 477.881 399.805C477.789 365.232 464.646 334.139 439.822 309.776C428.847 299.003 418.335 291.51 405.278 285.15C390.335 277.872 378.387 274.773 351.403 271.177C345.203 270.35 337.489 268.701 334.258 267.51C326.085 264.499 317.213 256.226 312.897 247.591C309.768 241.334 309.559 240.25 309.559 230.331C309.559 220.856 309.849 219.169 312.326 214.216C317.545 203.784 327.439 196.17 338.396 194.154C452.476 191.769 549.242 192.024 667.603 194.154Z" fill="#ba86f0" fill-rule="nonzero" opacity="0" stroke="#000000" stroke-linecap="butt" stroke-linejoin="miter" stroke-width="1"/>
<path d="M502.998 21.498C409.317 21.5011 315.654 22.0746 306.807 23.2148C241.699 31.6066 186.102 71.202 155.99 130.627C146.125 150.096 139.955 169.625 136.648 191.842L134.965 203.154L124.736 208.418C87.143 227.761 57.5604 258.102 37.8848 297.496C11.5476 350.228 9.45509 412.148 32.0508 470.121C39.2648 488.63 53.3069 512.651 66.3164 528.734C74.0628 538.311 90.7485 554.783 100.955 562.928C124.696 581.872 154.472 596.742 182.975 603.885C202.612 608.806 207.343 609.24 248.992 609.973C314.053 611.116 784.484 610.234 795.621 608.947C818.575 606.295 841.419 599.619 863.139 589.213C942.94 550.979 992.607 468.919 989.352 380.682C988.239 350.515 982.375 326.907 969.18 299.477C949.573 258.717 918.202 226.575 878.965 207.043L870.91 203.033L870.207 196.787C866.35 162.56 852.515 128.582 830.57 99.4336C798.763 57.1848 751.794 29.9089 699.297 23.2012C690.377 22.0615 596.679 21.4949 502.998 21.498ZM321.816 103.064L684.184 103.064L692.865 105.383C716.314 111.644 731.758 120.007 747.891 135.184C767.859 153.971 780.997 178.303 785.309 204.494C787.26 216.329 787.252 236.285 785.293 248.168C782.056 267.827 772.083 291.175 760.578 306.025C746.424 324.294 725.921 341.137 709.209 348.225C703.194 350.775 669.153 360.641 663.242 361.547C643.529 364.569 631.641 373.814 626.924 389.797C621.832 407.043 630.769 426.711 647.125 434.264C656.138 438.425 661.095 438.733 720.865 438.889C773.844 439.022 778.718 438.894 785.633 437.146C808.105 431.481 821.592 409.78 816.045 388.234C814.561 382.483 813.198 379.72 807.295 370.523C806.043 368.579 806.51 367.695 812.834 359.982C827.093 342.588 840.178 320.46 848.596 299.512C852.231 290.455 852.662 289.828 854.582 290.84C858.692 293.006 878.43 313.471 883.561 320.885C892.902 334.39 898.865 347.611 903.961 366.105C906.588 375.648 906.596 409.451 903.973 421.199C890.946 479.546 843.707 522.391 785.814 528.371C783.848 528.572 751.619 528.813 714.193 528.9C657.15 529.037 644.679 528.812 637.076 527.521C609.335 522.805 586.903 511.297 566.652 491.389C540.657 465.83 528.021 435.797 528.117 399.805C528.21 365.231 541.353 334.138 566.178 309.775C577.153 299.003 587.663 291.511 600.721 285.15C615.663 277.873 627.612 274.772 654.596 271.176C660.796 270.35 668.511 268.7 671.74 267.51C679.915 264.498 688.785 256.227 693.104 247.592C696.233 241.334 696.441 240.251 696.441 230.332C696.441 220.857 696.152 219.168 693.672 214.215C688.453 203.783 678.559 196.17 667.604 194.154C549.242 192.024 452.476 191.769 338.396 194.154C327.44 196.17 317.545 203.783 312.326 214.215C309.848 219.168 309.559 220.857 309.559 230.332C309.559 240.251 309.768 241.334 312.896 247.592C317.213 256.227 326.085 264.498 334.258 267.51C337.489 268.7 345.203 270.35 351.402 271.176C378.386 274.772 390.335 277.873 405.277 285.15C418.335 291.511 428.847 299.003 439.822 309.775C464.647 334.138 477.788 365.231 477.881 399.805C477.977 435.797 465.343 465.83 439.348 491.389C419.097 511.297 396.663 522.805 368.922 527.521C361.319 528.813 348.848 529.037 291.805 528.9C254.38 528.813 222.15 528.572 220.184 528.371C162.29 522.391 115.054 479.546 102.027 421.199C99.4043 409.451 99.4114 375.648 102.039 366.105C107.132 347.611 113.097 334.39 122.439 320.885C127.568 313.471 147.305 293.006 151.416 290.84C153.335 289.828 153.768 290.455 157.406 299.512C165.821 320.46 178.906 342.588 193.166 359.982C199.49 367.695 199.955 368.579 198.707 370.523C192.804 379.72 191.437 382.483 189.955 388.234C184.405 409.78 197.894 431.481 220.363 437.146C227.282 438.893 232.156 439.022 285.135 438.889C344.906 438.733 349.86 438.425 358.873 434.264C375.229 426.711 384.166 407.043 379.074 389.797C374.357 373.814 362.471 364.569 342.756 361.547C336.847 360.641 302.806 350.775 296.791 348.225C280.078 341.137 259.576 324.294 245.422 306.025C233.916 291.175 223.941 267.827 220.703 248.168C218.746 236.285 218.74 216.329 220.689 204.494C225.003 178.303 238.14 153.971 258.109 135.184C274.241 120.007 289.684 111.644 313.133 105.383L321.816 103.064Z" fill="#2d2d2d" fill-rule="nonzero" opacity="0" stroke="#000000" stroke-linecap="butt" stroke-linejoin="miter" stroke-width="1"/>
<path d="M502.998 13.5098C407.586 13.513 312.192 14.1003 303.182 15.2715C236.871 23.8909 180.247 64.5627 149.578 125.6C139.53 145.597 133.246 165.653 129.879 188.473L128.164 200.094L117.748 205.5C79.4602 225.368 49.3301 256.532 29.291 296.994C2.46722 351.156 0.336435 414.757 23.3496 474.303C30.697 493.314 44.9982 517.986 58.248 534.506C66.1375 544.342 83.1322 561.26 93.5273 569.625C117.707 589.083 148.033 604.356 177.062 611.693C197.062 616.748 201.88 617.195 244.299 617.947C310.562 619.122 789.687 618.216 801.029 616.895C824.407 614.171 847.67 607.313 869.791 596.625C951.067 557.354 1001.65 473.068 998.338 382.438C997.205 351.453 991.232 327.204 977.793 299.029C957.824 257.164 925.874 224.15 885.912 204.088L877.709 199.969L876.992 193.555C873.064 158.4 858.974 123.498 836.623 93.5586C804.228 50.1637 756.39 22.1475 702.924 15.2578C693.839 14.0872 598.41 13.5065 502.998 13.5098ZM502.998 21.498C596.679 21.4949 690.377 22.0615 699.297 23.2012C751.794 29.9089 798.763 57.1848 830.57 99.4336C852.515 128.582 866.35 162.56 870.207 196.787L870.91 203.033L878.965 207.043C918.202 226.575 949.573 258.717 969.18 299.477C982.375 326.907 988.239 350.515 989.352 380.682C992.607 468.919 942.94 550.979 863.139 589.213C841.419 599.619 818.575 606.295 795.621 608.947C784.484 610.234 314.053 611.116 248.992 609.973C207.343 609.24 202.612 608.806 182.975 603.885C154.472 596.742 124.696 581.872 100.955 562.928C90.7485 554.783 74.0628 538.311 66.3164 528.734C53.3069 512.651 39.2648 488.63 32.0508 470.121C9.45508 412.148 11.5476 350.228 37.8848 297.496C57.5604 258.102 87.143 227.761 124.736 208.418L134.965 203.154L136.648 191.842C139.955 169.625 146.125 150.096 155.99 130.627C186.102 71.202 241.699 31.6066 306.807 23.2148C315.654 22.0745 409.317 21.5012 502.998 21.498Z" fill="#ba86f0" fill-rule="nonzero" opacity="0" stroke="none"/>
<path d="M502.998 13.5098C407.586 13.513 312.192 14.1003 303.182 15.2715C236.871 23.8909 180.247 64.5627 149.578 125.6C139.53 145.597 133.246 165.653 129.879 188.473L128.164 200.094L117.748 205.5C79.4602 225.368 49.3301 256.532 29.291 296.994C2.46722 351.156 0.336435 414.757 23.3496 474.303C30.697 493.314 44.9982 517.986 58.248 534.506C66.1375 544.342 83.1322 561.26 93.5273 569.625C117.707 589.083 148.033 604.356 177.062 611.693C197.062 616.748 201.88 617.195 244.299 617.947C310.562 619.122 789.687 618.216 801.029 616.895C824.407 614.171 847.67 607.313 869.791 596.625C951.067 557.354 1001.65 473.068 998.338 382.438C997.205 351.453 991.232 327.204 977.793 299.029C957.824 257.164 925.874 224.15 885.912 204.088L877.709 199.969L876.992 193.555C873.064 158.4 858.974 123.498 836.623 93.5586C804.228 50.1637 756.39 22.1475 702.924 15.2578C693.839 14.0872 598.41 13.5065 502.998 13.5098ZM502.998 21.498C596.679 21.4949 690.377 22.0615 699.297 23.2012C751.794 29.9089 798.763 57.1848 830.57 99.4336C852.515 128.582 866.35 162.56 870.207 196.787L870.91 203.033L878.965 207.043C918.202 226.575 949.573 258.717 969.18 299.477C982.375 326.907 988.239 350.515 989.352 380.682C992.607 468.919 942.94 550.979 863.139 589.213C841.419 599.619 818.575 606.295 795.621 608.947C784.484 610.234 314.053 611.116 248.992 609.973C207.343 609.24 202.612 608.806 182.975 603.885C154.472 596.742 124.696 581.872 100.955 562.928C90.7485 554.783 74.0628 538.311 66.3164 528.734C53.3069 512.651 39.2648 488.63 32.0508 470.121C9.45508 412.148 11.5476 350.228 37.8848 297.496C57.5604 258.102 87.143 227.761 124.736 208.418L134.965 203.154L136.648 191.842C139.955 169.625 146.125 150.096 155.99 130.627C186.102 71.202 241.699 31.6066 306.807 23.2148C315.654 22.0745 409.317 21.5012 502.998 21.498Z" fill="#ba86f0" fill-rule="nonzero" opacity="0" stroke="none"/>
</g>
</svg>
