<?xml version="1.0" encoding="UTF-8" standalone="no"?>
<!DOCTYPE svg PUBLIC "-//W3C//DTD SVG 1.1//EN" "http://www.w3.org/Graphics/SVG/1.1/DTD/svg11.dtd">
<!-- Created with Vectornator (http://vectornator.io/) -->
<svg stroke-miterlimit="10" style="fill-rule:nonzero;clip-rule:evenodd;stroke-linecap:round;stroke-linejoin:round;" version="1.1" viewBox="0 0 98.1 118" xml:space="preserve" xmlns="http://www.w3.org/2000/svg" xmlns:xlink="http://www.w3.org/1999/xlink">
<defs/>
<clipPath id="ArtboardFrame">
<rect height="118" width="98.1" x="0" y="0"/>
</clipPath>
<g clip-path="url(#ArtboardFrame)" id="Untitled">
<path d="M62.8438 0C56.1693-0.186328 49.4438 1.475 43.5938 5.1875L16.0938 22.8125C8.59375 27.5125 3.40625 35.2062 1.90625 43.9062C0.60625 51.2063 1.6875 58.6875 5.1875 65.1875C2.7875 68.7875 1.2 72.8 0.5 77C-1.1 85.9 0.987501 95.1062 6.1875 102.406C17.1875 118.106 38.8062 122.712 54.4062 112.812L81.9062 95.3125C89.4063 90.6125 94.5938 82.8875 96.0938 74.1875C97.3937 66.8875 96.3125 59.4062 92.8125 52.9062C95.2125 49.3063 96.8 45.2937 97.5 41.0938C99.2 32.0937 97.1125 22.8937 91.8125 15.5938C85 5.78125 73.9678 0.310547 62.8438 0ZM63.7812 13.4375C70.3953 13.8031 76.6 17.1875 80.5 22.8125C83.7 27.2125 84.9 32.6937 84 38.0938C83.8 38.9937 83.6125 39.7875 83.3125 40.6875L82.8125 42.3125L81.4062 41.3125C78.1063 38.9125 74.4938 37.1062 70.5938 35.9062L69.5938 35.5938L69.6875 34.5938C69.7875 33.1938 69.3938 31.7 68.5938 30.5C66.9937 28.2 64.2 27.2063 61.5 27.9062C60.9 28.1062 60.3125 28.2937 59.8125 28.5938L32.4062 46.0938C31.0063 46.9937 30.1125 48.3062 29.8125 49.9062C29.5125 51.5062 29.9125 53.2 30.8125 54.5C32.4125 56.8 35.2062 57.7938 37.9062 57.0938C38.5062 56.8938 39.0938 56.7062 39.5938 56.4062L50.0938 49.6875C51.7938 48.5875 53.6875 47.7875 55.6875 47.1875C64.5875 44.8875 73.8938 48.4062 79.0938 55.9062C82.2938 60.3063 83.4937 65.7875 82.5938 71.1875C81.6938 76.3875 78.5 81.1062 74 83.9062L46.5 101.406C44.8 102.506 42.9062 103.306 40.9062 103.906C32.0063 106.206 22.7 102.688 17.5 95.1875C14.3 90.7875 13.1 85.3062 14 79.9062C14.2 79.0063 14.3938 78.2125 14.5938 77.3125L15.0938 75.6875L16.5 76.6875C19.8 79.0875 23.4125 80.8937 27.3125 82.0938L28.3125 82.4062L28.1875 83.4062C28.0875 84.8062 28.5125 86.3 29.3125 87.5C30.9125 89.8 33.7062 90.8875 36.4062 90.1875C37.0062 89.9875 37.5938 89.8 38.0938 89.5L65.5 72C66.9 71.1 67.7938 69.7875 68.0938 68.1875C68.3938 66.5875 67.9938 64.8937 67.0938 63.5938C65.4937 61.2938 62.7 60.3 60 61C59.4 61.2 58.8125 61.3875 58.3125 61.6875L47.8125 68.4062C46.1125 69.5063 44.1875 70.3125 42.1875 70.8125C33.2875 73.1125 24.0125 69.5938 18.8125 62.0938C15.7125 57.6937 14.4062 52.2125 15.4062 46.8125C16.3062 41.6125 19.5 36.8937 24 34.0938L51.5 16.5938C53.2 15.4937 55.0937 14.6937 57.0938 14.0938C59.3187 13.5188 61.5766 13.3156 63.7812 13.4375Z" fill="#ff3e00" fill-opacity="0.45" fill-rule="evenodd" opacity="1" stroke="none"/>
</g>
</svg>
